<svg width="512" height="512" viewBox="0 0 512 512" fill="none" xmlns="http://www.w3.org/2000/svg">
<rect width="512" height="512" rx="108" fill="#C13A2F"/>
<path d="M305 132.811C324 142.918 323.5 156.811 340.5 169.811L263 173.811L230 136.311C230 136.311 281.343 120.226 305 132.811Z" fill="#721A16"/>
<path fill-rule="evenodd" clip-rule="evenodd" d="M92.537 315.81C92.7036 332.476 96.837 368.11 112.037 377.31C131.037 388.81 141.537 393.31 202.037 396.31C262.537 399.31 315.037 396.31 351.537 392.31C388.037 388.31 414.537 384.31 417.537 331.31C420.537 278.31 421.537 227.81 414.537 202.31C407.537 176.81 397.037 163.81 338.537 165.31C288.531 166.592 283.828 158.741 276.646 146.752C275.426 144.716 274.134 142.56 272.537 140.31C271.643 139.049 270.791 137.806 269.956 136.586C260.518 122.798 253.134 112.013 209.037 114.31C199.049 114.83 189.558 114.701 180.674 114.579C146.864 114.119 121.832 113.778 111.537 149.81C110.356 153.943 109.117 158.156 107.861 162.428C95.2867 205.18 80.9445 253.944 105.037 290.31C131.537 330.31 164.037 344.81 199.537 340.31C235.037 335.81 224.037 313.81 223.537 313.31C223.505 313.278 223.463 313.205 223.399 313.096C222.461 311.478 216.792 301.705 169.037 292.81C129.537 284.81 126.037 241.31 148.537 220.81C181.537 191.81 233.037 210.81 246.537 220.81L237.537 241.81C217.037 226.23 173.037 228.23 166.537 240.23C160.155 252.012 162.537 261.73 180.037 268.73C202.537 276.23 227.342 280.271 235.537 286.23C253.037 297.23 258.537 319.81 248.037 340.31C237.537 360.81 196.537 370.31 158.037 360.31C119.537 350.31 96.0369 323.81 92.537 315.81ZM277.537 328.81V355.81C294.537 364.31 336.3 368.6 353.5 357C375 342.5 380.537 332.31 377.037 305.31C373.537 278.31 335.037 271.81 335.037 271.81L372.037 228.31V209.81H277.537V232.31H337.537L303.037 273.31V292.81C318.204 291.143 348.637 293.11 349.037 314.31C349.437 335.51 331.537 339.81 322.537 339.31C322.537 339.31 308.313 339.811 299.537 337.81C290.487 335.746 277.537 328.81 277.537 328.81Z" fill="#D9D9D9"/>
</svg>
